<svg width="60" height="60" viewBox="0 0 60 60" fill="none" xmlns="http://www.w3.org/2000/svg">
<g clip-path="url(#clip0_198_116)">
<path d="M20 27.5C23.3152 27.5 26.4946 26.183 28.8388 23.8388C31.183 21.4946 32.5 18.3152 32.5 15C32.5 11.6848 31.183 8.50537 28.8388 6.16117C26.4946 3.81696 23.3152 2.5 20 2.5C16.6848 2.5 13.5054 3.81696 11.1612 6.16117C8.81696 8.50537 7.5 11.6848 7.5 15C7.5 18.3152 8.81696 21.4946 11.1612 23.8388C13.5054 26.183 16.6848 27.5 20 27.5ZM20 27.5C25.0325 27.5 29.43 29.4 32.5575 32.5575C34.4121 34.4372 35.7993 36.7261 36.6075 39.24M20 27.5C10 27.5 2.5 35 2.5 45V57.5H27.5M30 47.06L40.475 55L57.5 32.5" stroke="white" stroke-width="5"/>
</g>
<defs>
<clipPath id="clip0_198_116">
<rect width="60" height="60" fill="white"/>
</clipPath>
</defs>
</svg>
