<svg width="80" height="80" viewBox="0 0 80 80" fill="none" xmlns="http://www.w3.org/2000/svg">
<path d="M52.1427 47.1428C51.5744 47.1428 51.0294 47.3685 50.6275 47.7704C50.2256 48.1723 49.9999 48.7173 49.9999 49.2856C49.9999 49.854 50.2256 50.399 50.6275 50.8009C51.0294 51.2027 51.5744 51.4285 52.1427 51.4285H62.1427C62.711 51.4285 63.2561 51.2027 63.658 50.8009C64.0598 50.399 64.2856 49.854 64.2856 49.2856C64.2856 48.7173 64.0598 48.1723 63.658 47.7704C63.2561 47.3685 62.711 47.1428 62.1427 47.1428H52.1427ZM5.72559 24.9999C5.72559 22.1583 6.85441 19.4331 8.86373 17.4238C10.873 15.4145 13.5983 14.2856 16.4399 14.2856H63.5713C66.4129 14.2856 69.1381 15.4145 71.1474 17.4238C73.1568 19.4331 74.2856 22.1583 74.2856 24.9999V54.9999C74.2856 57.8415 73.1568 60.5668 71.1474 62.5761C69.1381 64.5854 66.4129 65.7142 63.5713 65.7142H16.4427C13.6011 65.7142 10.8759 64.5854 8.86659 62.5761C6.85727 60.5668 5.72844 57.8415 5.72844 54.9999L5.72559 24.9999ZM16.4399 18.5714C14.7349 18.5714 13.0998 19.2487 11.8942 20.4542C10.6886 21.6598 10.0113 23.295 10.0113 24.9999V27.1428H69.9999V24.9999C69.9999 23.295 69.3226 21.6598 68.117 20.4542C66.9114 19.2487 65.2763 18.5714 63.5713 18.5714H16.4399ZM10.0113 54.9999C10.0113 56.7049 10.6886 58.34 11.8942 59.5456C13.0998 60.7512 14.7349 61.4285 16.4399 61.4285H63.5713C65.2763 61.4285 66.9114 60.7512 68.117 59.5456C69.3226 58.34 69.9999 56.7049 69.9999 54.9999V31.4285H10.0142L10.0113 54.9999Z" fill="white"/>
</svg>
