<svg width="64" height="58" viewBox="0 0 64 58" fill="none" xmlns="http://www.w3.org/2000/svg">
<path d="M18.8133 48.6168H28.0467V46.0501H21.38V41.9501H28.0467V32.7167H18.8133V35.2834H25.48V39.3834H18.8133V48.6168ZM42.66 48.6168H45.2267V32.7167H42.66V39.3834H38.56V32.7167H35.9933V41.9501H42.66V48.6168ZM60.3533 25.3201V51.9501C60.3533 53.4834 59.8389 54.7634 58.81 55.7901C57.7833 56.819 56.5022 57.3334 54.9667 57.3334H9.07C7.53666 57.3334 6.25555 56.8201 5.22667 55.7934C4.2 54.7645 3.68667 53.4834 3.68667 51.9501V25.1934C2.28 24.1534 1.25111 22.7923 0.599998 21.1101C-0.0511127 19.4256 -0.0655572 17.6279 0.556665 15.7168L3.8 5.02675C4.24444 3.66675 4.96222 2.60008 5.95333 1.82675C6.94222 1.05341 8.16444 0.666748 9.62 0.666748H54.2867C55.7444 0.666748 56.9656 1.02897 57.95 1.75341C58.9322 2.47786 59.6522 3.52564 60.11 4.89675L63.48 15.7168C64.1044 17.6279 64.0911 19.4401 63.44 21.1534C62.7867 22.8667 61.7578 24.2556 60.3533 25.3201ZM39.3533 24.0001C41.4933 24.0001 43.0911 23.4001 44.1467 22.2001C45.2022 21.0001 45.6467 19.7623 45.48 18.4867L43.2667 4.00008H33.69V18.0001C33.69 19.6379 34.25 21.0468 35.37 22.2268C36.4878 23.409 37.8133 24.0001 39.3533 24.0001ZM24.3567 24.0001C26.1478 24.0001 27.5956 23.409 28.7 22.2268C29.8044 21.0468 30.3567 19.6379 30.3567 18.0001V4.00008H20.7767L18.5567 18.7434C18.4211 19.7768 18.8733 20.9112 19.9133 22.1467C20.9533 23.3823 22.4367 24.0001 24.3567 24.0001ZM9.52 24.0001C10.9889 24.0001 12.2378 23.5001 13.2667 22.5001C14.2956 21.5001 14.9356 20.2523 15.1867 18.7567L17.2767 4.00008H9.62333C8.89667 4.00008 8.31889 4.16008 7.89 4.48008C7.46333 4.80008 7.14333 5.28119 6.93 5.92342L3.85333 16.4501C3.30667 18.2012 3.54 19.8979 4.55333 21.5401C5.56889 23.1801 7.22444 24.0001 9.52 24.0001ZM54.52 24.0001C56.5156 24.0001 58.1089 23.2223 59.3 21.6667C60.4933 20.1112 60.7889 18.3723 60.1867 16.4501L56.9433 5.79342C56.73 5.15342 56.4089 4.69453 55.98 4.41675C55.5511 4.13897 54.9744 4.00008 54.25 4.00008H46.7633L48.8533 18.7567C49.1044 20.2523 49.7444 21.5001 50.7733 22.5001C51.8 23.5001 53.0489 24.0001 54.52 24.0001ZM9.07 54.0001H54.97C55.5678 54.0001 56.0589 53.8079 56.4433 53.4234C56.8278 53.039 57.02 52.5479 57.02 51.9501V26.9101C56.5711 27.0656 56.1444 27.1745 55.74 27.2367C55.3356 27.3012 54.9289 27.3334 54.52 27.3334C53.02 27.3334 51.7 27.0412 50.56 26.4568C49.4222 25.8701 48.34 24.9368 47.3133 23.6567C46.4422 24.7412 45.3678 25.6245 44.09 26.3068C42.8122 26.9912 41.2589 27.3334 39.43 27.3334C38.1011 27.3334 36.8367 27.0234 35.6367 26.4034C34.4367 25.7834 33.2311 24.8667 32.02 23.6534C30.9044 24.8667 29.6678 25.7834 28.31 26.4034C26.9522 27.0234 25.66 27.3334 24.4333 27.3334C23.0356 27.3334 21.6733 27.0667 20.3467 26.5334C19.02 26.0001 17.8567 25.0401 16.8567 23.6534C15.2189 25.2912 13.7878 26.3134 12.5633 26.7201C11.3411 27.129 10.3278 27.3334 9.52333 27.3334C9.11222 27.3334 8.69889 27.3012 8.28333 27.2367C7.86778 27.1723 7.44778 27.0634 7.02333 26.9101V51.9501C7.02333 52.5479 7.21555 53.039 7.6 53.4234C7.98444 53.8079 8.47555 54.0001 9.07333 54.0001" fill="white"/>
</svg>
